Simulation
nRows=32
nColumns=15
endheader
time  TH_x TH_y TH_z SC_y  SC_z  SC_x  AC_y  AC_z  AC_x  GH_y  GH_z  GH_yy  EL_x  PS_y
0.0  0.000000  0.000000  0.000000  -29.500338713509223  0.4276757729203478  -8.391506088687631  50.990416301960444  12.505538981789794  -0.20323997278543252  75.49037898296089  0.8119268545315613  -46.80074056642824  22.8231740561422  0.000000
0.031  0.000000  0.000000  0.000000  -29.470122260715716  0.3121876047593283  -7.2993279017953  50.98387438144006  11.802467257942995  -1.0959459300715375  71.84635863258636  0.9455119732813656  -43.2203033928495  22.77615016788761  0.000000
0.062  0.000000  0.000000  0.000000  -29.419653387024393  0.18592387540892588  -6.253491079197971  50.99083528069557  11.106540236767875  -1.9542278669502144  70.17966350027953  1.107982017428268  -41.62152144965822  22.730590830144656  0.000000
0.093  0.000000  0.000000  0.000000  -29.366286415049636  0.05625378265531152  -5.264016070897294  51.00523422725808  10.43160814964837  -2.7668736312653537  69.14821782815115  1.3094520774187757  -40.68041738811553  22.669425927786303  0.000000
0.124  0.000000  0.000000  0.000000  -29.315982826514695  -0.07015933571218752  -4.3367236029360265  51.02311801551381  9.787871768403107  -3.5266096335468817  68.05401788613179  1.5617575022099706  -39.716706396196656  22.581222714330984  0.000000
0.155  0.000000  0.000000  0.000000  -29.279594183424795  -0.18889817042961973  -3.4744646265469887  51.04280205471519  9.183136181259348  -4.229214250468393  66.58061248230985  1.879785189181521  -38.43330506895577  22.460657782034044  0.000000
0.186  0.000000  0.000000  0.000000  -29.261634289445652  -0.2961284321504305  -2.6776142268398853  51.06243545693728  8.622857271441426  -4.872371668867309  64.70803376795041  2.275122752670172  -36.827130675112414  22.308399957235977  0.000000
0.217  0.000000  0.000000  0.000000  -29.26541533889693  -0.3894200012889137  -1.9449702912462805  51.08262552588839  8.110389702771066  -5.455640221645075  62.53376812511742  2.7573907541700087  -35.00870691745558  22.129889465238403  0.000000
0.248  0.000000  0.000000  0.000000  -29.291156890668685  -0.46741096960303735  -1.273999284335042  51.10430063865983  7.646893963827474  -5.979167765311083  60.200346691158025  3.3327665426955915  -33.13009917055508  21.934055282701138  0.000000
0.279  0.000000  0.000000  0.000000  -29.33660985666523  -0.5299587035083079  -0.661422980020264  51.13054870204419  7.231508716177897  -6.443643647641297  57.82206325424661  4.004458314724448  -31.30999184694965  21.73238572950735  0.000000
0.31  0.000000  0.000000  0.000000  -29.398108830845306  -0.5779286521167599  -0.10347207008558792  51.16531649425571  6.8614967244251694  -6.849604477124857  55.47230316747322  4.772903969109276  -29.62211973455084  21.538748458499516  0.000000
0.34099999999999997  0.000000  0.000000  0.000000  -29.47132472481016  -0.613008715759961  0.403694413411924  51.21353921806108  6.532468574600139  -7.197573953911379  53.185483610760514  5.636911744788933  -28.09754338953491  21.36822270133859  0.000000
0.372  0.000000  0.000000  0.000000  -29.55235586372914  -0.6374015776939773  0.8639542313917243  51.280059438219695  6.238820162231532  -7.4881512105032  50.967697765729234  6.5943627998131  -26.73530131949249  21.236078215176605  0.000000
0.403  0.000000  0.000000  0.000000  -29.637453248048462  -0.6531354440708006  1.28106053276212  51.368800036824176  5.974493183440257  -7.722499745013254  48.812437291770514  7.642872082061164  -25.51782983270289  21.154785594564938  0.000000
0.434  0.000000  0.000000  0.000000  -29.722896864347675  -0.6613895196636774  1.6591124604284389  51.4817860592758  5.733972652231472  -7.902805249978576  46.7100644859257  8.780097869807685  -24.41934203775057  21.13073884284247  0.000000
0.46499999999999997  0.000000  0.000000  0.000000  -29.804707131232767  -0.6617358044951098  2.002788849616543  51.61802320260748  5.5134357758503345  -8.032416452268825  44.65616552499368  10.004048914783256  -23.414399892523846  21.16133722239976  0.000000
0.496  0.000000  0.000000  0.000000  -29.879119546349393  -0.6520263660614425  2.318311616980715  51.7733690967113  5.311220850385742  -8.116637395367073  42.65531577886917  11.31319833919868  -22.482814426344643  21.2346356215551  0.000000
0.527  0.000000  0.000000  0.000000  -29.943580925716844  -0.6285191644643819  2.61305527929438  51.940773727199186  5.128483558071885  -8.162461550558877  40.72210706924153  12.705846172402584  -21.613487576918526  21.332590576533757  0.000000
0.558  0.000000  0.000000  0.000000  -29.997862600096763  -0.5867953142431351  2.8919318134994882  52.1116739727619  4.97056305292279  -8.176099513640741  38.877889151648404  14.179725781851225  -20.8050499451966  21.435533594622175  0.000000
0.589  0.000000  0.000000  0.000000  -30.044342634443264  -0.5231841493495678  3.159412873364963  52.27823883049669  4.843422295102421  -8.163557334008463  37.14363929840268  15.731713894383311  -20.061893111075896  21.526470983520632  0.000000
0.62  0.000000  0.000000  0.000000  -30.086536474600795  -0.4351167418431745  3.4235993270629677  52.435399203509114  4.749694738961238  -8.132431155844001  35.53710196715486  17.35706501956275  -19.39228071080724  21.59385208104207  0.000000
0.651  0.000000  0.000000  0.000000  -30.127279650968077  -0.32244849457825914  3.6942690413224746  52.581015034360405  4.689673744122623  -8.090273049220057  34.06886687351635  19.048423828860745  -18.80382411462663  21.632214993961174  0.000000
0.6819999999999999  0.000000  0.000000  0.000000  -30.166882742989255  -0.18829950477104976  3.9814971431837174  52.71632565891836  4.661745071067324  -8.044175202939787  32.74025521048589  20.79562739113165  -18.29983321080821  21.641130485947333  0.000000
0.713  0.000000  0.000000  0.000000  -30.202121102614097  -0.03747523881457286  4.296704253458499  52.84526580031441  4.661411818780874  -8.001372337698013  31.54501548810678  22.58588902434499  -17.879209560235  21.62360975908578  0.000000
0.744  0.000000  0.000000  0.000000  -30.22790558605564  0.12439853384578965  4.651998807793952  52.97285587475055  4.682708751160237  -7.9689744826367495  30.47324890905666  24.404052168369013  -17.53871322877647  21.58398192148938  0.000000
0.775  0.000000  0.000000  0.000000  -30.239054930664356  0.2919442323675465  5.058624205526868  53.10358156177763  4.7197736901216  -7.953395425721368  29.51494181818044  26.232756297819297  -17.274968002272942  21.52577921295732  0.000000
0.806  0.000000  0.000000  0.000000  -30.231726155146163  0.46120786157980437  5.526492006814717  53.24048396023874  4.766926329233607  -7.960361409966168  28.66223492463804  28.053183361609534  -17.085788543595633  21.45042889019905  0.000000
0.837  0.000000  0.000000  0.000000  -30.20459251314568  0.6296642455220884  6.063927416881379  53.38457032182688  4.818467142148137  -7.99463660423329  27.909309955358456  29.84618606606181  -16.969796193467786  21.357052718337  0.000000
0.868  0.000000  0.000000  0.000000  -30.15875007318221  0.7961929423040469  6.677017022658366  53.534913924445036  4.868538771604433  -8.059962676316818  27.251449977189242  31.59388298792207  -16.92582586012047  21.243097316807866  0.000000
0.899  0.000000  0.000000  0.000000  -30.09766380635126  0.9608560160966829  7.369166594469818  53.6888623384143  4.911239613245485  -8.158655596910455  26.683583569995974  33.281077465542786  -16.95166212034151  21.1056041877479  0.000000
0.9299999999999999  0.000000  0.000000  0.000000  -30.02668991732356  1.12485418070137  8.140807106495984  53.84266754900103  4.940959355108157  -8.291373729266876  26.199978308522134  34.896454682996946  -17.044196981170373  20.942072157149056  0.000000
0.961  0.000000  0.000000  0.000000  -29.952734468896193  1.290516158633031  8.989923559738333  53.99203183267245  4.952817765804546  -8.456904419110353  25.794274918560404  36.43296334314272  -17.199263592067762  20.751063868817077  0.000000
